<svg width="48" height="48" viewBox="0 0 48 48" fill="none" xmlns="http://www.w3.org/2000/svg">
<path d="M0 10C0 4.47715 4.47715 0 10 0H38C43.5229 0 48 4.47715 48 10V38C48 43.5229 43.5228 48 38 48H10C4.47715 48 0 43.5228 0 38V10Z" fill="#0066FF" fill-opacity="0.1"/>
<path d="M33.6 36H14.4C13.74 36 13.175 35.7235 12.705 35.1706C12.235 34.6176 12 33.9529 12 33.1765V16.2353C12 15.4588 12.235 14.7941 12.705 14.2412C13.175 13.6882 13.74 13.4118 14.4 13.4118H26.4V16.2353H14.4V33.1765H33.6V23.2941H36V33.1765C36 33.9529 35.765 34.6176 35.295 35.1706C34.825 35.7235 34.26 36 33.6 36ZM16.8 30.3529H25.2V26.1176H16.8V30.3529ZM16.8 23.2941H25.2V19.0588H16.8V23.2941ZM27.6 30.3529H31.2V23.2941H27.6V30.3529ZM31.2 20.4706V17.6471H28.8V14.8235H31.2V12H33.6V14.8235H36V17.6471H33.6V20.4706H31.2Z" fill="#E3E3E3"/>
</svg>
