<svg width="14" height="16" viewBox="0 0 14 16" fill="none" xmlns="http://www.w3.org/2000/svg">
<path d="M4.725 11.8125L7 9.5375L9.275 11.8125L10.5 10.5875L8.225 8.3125L10.5 6.0375L9.275 4.8125L7 7.0875L4.725 4.8125L3.5 6.0375L5.775 8.3125L3.5 10.5875L4.725 11.8125ZM2.625 15.75C2.14375 15.75 1.73177 15.5786 1.38906 15.2359C1.04635 14.8932 0.875 14.4812 0.875 14V2.625H0V0.875H4.375V0H9.625V0.875H14V2.625H13.125V14C13.125 14.4812 12.9536 14.8932 12.6109 15.2359C12.2682 15.5786 11.8562 15.75 11.375 15.75H2.625ZM11.375 2.625H2.625V14H11.375V2.625Z" fill="#E3E3E3"/>
</svg>
