<svg width="24" height="26" viewBox="0 0 24 26" fill="none" xmlns="http://www.w3.org/2000/svg">
<path d="M22.9178 9.34092H0.868923C0.380154 9.34092 0 9.72108 0 10.2098V22.9722C0 24.3842 1.14046 25.5246 2.55246 25.5246H21.2343C22.6463 25.5246 23.7868 24.3842 23.7868 22.9722V10.2098C23.7868 9.72108 23.4066 9.34092 22.9178 9.34092ZM7.65738 21.2343C7.65738 21.7231 7.27723 22.1032 6.78846 22.1032H5.10492C4.61615 22.1032 4.236 21.7231 4.236 21.2343V19.5508C4.236 19.062 4.61615 18.6818 5.10492 18.6818H6.78846C7.27723 18.6818 7.65738 19.062 7.65738 19.5508V21.2343ZM13.5769 21.2343C13.5769 21.7231 13.1968 22.1032 12.708 22.1032H11.0245C10.5357 22.1032 10.1555 21.7231 10.1555 21.2343V19.5508C10.1555 19.062 10.5357 18.6818 11.0245 18.6818H12.708C13.1968 18.6818 13.5769 19.062 13.5769 19.5508V21.2343ZM13.5769 15.3148C13.5769 15.8035 13.1968 16.1837 12.708 16.1837H11.0245C10.5357 16.1837 10.1555 15.8035 10.1555 15.3148V13.6312C10.1555 13.1425 10.5357 12.7623 11.0245 12.7623H12.708C13.1968 12.7623 13.5769 13.1425 13.5769 13.6312V15.3148ZM19.5508 15.3148C19.5508 15.8035 19.1706 16.1837 18.6818 16.1837H16.9983C16.5095 16.1837 16.1294 15.8035 16.1294 15.3148V13.6312C16.1294 13.1425 16.5095 12.7623 16.9983 12.7623H18.6818C19.1706 12.7623 19.5508 13.1425 19.5508 13.6312V15.3148ZM21.2343 2.55246H19.1163V1.68354C19.1163 0.760308 18.356 0 17.4328 0C16.5095 0 15.7492 0.760308 15.7492 1.68354V2.55246H8.09185V1.68354C8.09185 0.760308 7.33154 0 6.40831 0C5.48508 0 4.72477 0.760308 4.72477 1.68354V2.55246H2.55246C1.14046 2.55246 0 3.69292 0 5.10492V5.97385C0 6.46262 0.380154 6.84277 0.868923 6.84277H22.9722C23.4609 6.84277 23.8411 6.46262 23.8411 5.97385V5.10492C23.7868 3.69292 22.6463 2.55246 21.2343 2.55246Z" fill="url(#paint0_linear_263_2691)"/>
<defs>
<linearGradient id="paint0_linear_263_2691" x1="0" y1="12.7623" x2="23.8411" y2="12.7623" gradientUnits="userSpaceOnUse">
<stop stop-color="#AA56D7"/>
<stop offset="1" stop-color="#D7AA56"/>
</linearGradient>
</defs>
</svg>
