<svg width="80" height="80" viewBox="0 0 80 80" fill="none" xmlns="http://www.w3.org/2000/svg">
<path d="M27.5 70L10 52.5V27.5L27.5 10H52.5L70 27.5V52.5L52.5 70H27.5ZM30.5 54.1667L40 44.6667L49.5 54.1667L54.1667 49.5L44.6667 40L54.1667 30.5L49.5 25.8333L40 35.3333L30.5 25.8333L25.8333 30.5L35.3333 40L25.8333 49.5L30.5 54.1667ZM30.3333 63.3333H49.6667L63.3333 49.6667V30.3333L49.6667 16.6667H30.3333L16.6667 30.3333V49.6667L30.3333 63.3333Z" fill="url(#paint0_linear_149_1946)"/>
<defs>
<linearGradient id="paint0_linear_149_1946" x1="40" y1="10" x2="40" y2="70" gradientUnits="userSpaceOnUse">
<stop stop-color="#D7AA56"/>
<stop offset="0.466346" stop-color="#AA56D7"/>
<stop offset="0.961538" stop-color="#D52323"/>
</linearGradient>
</defs>
</svg>
