<svg width="30" height="30" viewBox="0 0 30 30" fill="none" xmlns="http://www.w3.org/2000/svg">
<path d="M28 30L17.1946 19.1946C16.3613 19.8982 15.3936 20.4492 14.2917 20.8475C13.1897 21.2456 12.0185 21.4446 10.7779 21.4446C7.76847 21.4446 5.21986 20.4006 3.13208 18.3125C1.04403 16.2247 0 13.6947 0 10.7225C0 7.75028 1.04403 5.22014 3.13208 3.13208C5.21986 1.04403 7.75917 0 10.75 0C13.7222 0 16.2476 1.04403 18.3263 3.13208C20.4051 5.22014 21.4446 7.75028 21.4446 10.7225C21.4446 11.9261 21.2501 13.0789 20.8612 14.1808C20.4724 15.2825 19.9075 16.2964 19.1667 17.2225L30 28L28 30ZM10.75 18.6667C12.9444 18.6667 14.8125 17.8912 16.3542 16.3404C17.8958 14.7896 18.6667 12.9169 18.6667 10.7225C18.6667 8.52805 17.8958 6.65528 16.3542 5.10417C14.8125 3.55333 12.9444 2.77792 10.75 2.77792C8.53694 2.77792 6.655 3.55333 5.10417 5.10417C3.55333 6.65528 2.77792 8.52805 2.77792 10.7225C2.77792 12.9169 3.55333 14.7896 5.10417 16.3404C6.655 17.8912 8.53694 18.6667 10.75 18.6667Z" fill="url(#paint0_linear_671_2719)"/>
<defs>
<linearGradient id="paint0_linear_671_2719" x1="0" y1="15" x2="30" y2="15" gradientUnits="userSpaceOnUse">
<stop stop-color="#AA56D7"/>
<stop offset="1" stop-color="#D7AA56"/>
</linearGradient>
</defs>
</svg>
