<svg width="48" height="48" viewBox="0 0 48 48" fill="none" xmlns="http://www.w3.org/2000/svg">
<path d="M0 10C0 4.47715 4.47715 0 10 0H38C43.5229 0 48 4.47715 48 10V38C48 43.5229 43.5228 48 38 48H10C4.47715 48 0 43.5228 0 38V10Z" fill="#0066FF" fill-opacity="0.1"/>
<path d="M35.3811 32.5098L25.4937 12.7228C24.6691 11.7591 23.3312 11.7591 22.5066 12.7228L12.6184 32.5098C11.7939 33.4726 11.7939 35.0354 12.6184 36H35.3803C36.2064 35.0354 36.2064 33.4726 35.3811 32.5098ZM23.0895 19.8258C23.0895 19.0606 23.6203 18.4412 24.2742 18.4412C24.9282 18.4412 25.4589 19.0606 25.4589 19.8258V26.2874C25.4589 27.0517 24.9282 27.672 24.2742 27.672C23.6203 27.672 23.0895 27.0517 23.0895 26.2874V19.8258ZM24.2813 32.2948C23.6274 32.2948 23.0966 31.6763 23.0966 30.9102C23.0966 30.1458 23.6274 29.5255 24.2813 29.5255C24.9353 29.5255 25.466 30.1458 25.466 30.9102C25.466 31.6763 24.9353 32.2948 24.2813 32.2948Z" fill="white"/>
</svg>
