<svg width="25" height="25" viewBox="0 0 25 25" fill="none" xmlns="http://www.w3.org/2000/svg">
<g clip-path="url(#clip0_263_2725)">
<path d="M23.9992 3.2168H20.6131H9.6082H6.22192C5.73101 3.2168 5.33305 3.61476 5.33305 4.10567V7.49176V8.97314H0.888874C0.397966 8.97314 0 9.3711 0 9.86201V20.7823C0 21.2732 0.397966 21.6712 0.888874 21.6712H16.2959C16.7868 21.6712 17.1847 21.2732 17.1847 20.7823V17.6924H20.6131H23.9992C24.4901 17.6924 24.8881 17.2945 24.8881 16.8035V13.4174V7.49171V4.10567C24.8881 3.61471 24.4901 3.2168 23.9992 3.2168ZM7.11084 4.99454H8.55595C8.30251 5.65768 7.77412 6.18601 7.11084 6.43946V4.99454ZM15.407 19.8933H1.77775V14.3062H15.407L15.407 19.8933ZM15.407 12.5285H1.77775V10.7508H15.407L15.407 12.5285ZM23.1103 15.9147H21.6653C21.9187 15.2515 22.447 14.7232 23.1103 14.4698V15.9147ZM23.1103 12.6222C21.4652 12.9715 20.1671 14.2696 19.8178 15.9147H17.1846V12.4188H17.1847C17.9046 11.9416 18.3323 11.2266 18.3322 10.4546C18.3322 9.02179 16.9171 7.89945 15.1106 7.89945C14.0426 7.89945 13.0674 8.30801 12.4756 8.97314H7.11084V8.28706C8.75598 7.93775 10.0541 6.63964 10.4035 4.99454H19.8178C20.1672 6.63959 21.4653 7.93761 23.1104 8.28706L23.1103 12.6222ZM23.1103 6.43946C22.4471 6.18601 21.9188 5.65772 21.6653 4.99454H23.1103V6.43946Z" fill="url(#paint0_linear_263_2725)"/>
<path d="M7.40748 16.084H4.44454C3.95363 16.084 3.55566 16.482 3.55566 16.9729C3.55566 17.4638 3.95363 17.8617 4.44454 17.8617H7.40748C7.89839 17.8617 8.29636 17.4638 8.29636 16.9729C8.29631 16.482 7.89834 16.084 7.40748 16.084Z" fill="url(#paint1_linear_263_2725)"/>
</g>
<defs>
<linearGradient id="paint0_linear_263_2725" x1="0" y1="12.444" x2="24.8881" y2="12.444" gradientUnits="userSpaceOnUse">
<stop stop-color="#AA56D7"/>
<stop offset="1" stop-color="#D7AA56"/>
</linearGradient>
<linearGradient id="paint1_linear_263_2725" x1="3.55566" y1="16.9729" x2="8.29636" y2="16.9729" gradientUnits="userSpaceOnUse">
<stop stop-color="#AA56D7"/>
<stop offset="1" stop-color="#D7AA56"/>
</linearGradient>
<clipPath id="clip0_263_2725">
<rect width="24.8881" height="24.8881" fill="white"/>
</clipPath>
</defs>
</svg>
