<svg width="18" height="27" viewBox="0 0 18 27" fill="none" xmlns="http://www.w3.org/2000/svg">
<path d="M8.77944 13.5913C12.532 13.5913 15.5746 10.5488 15.5746 6.79563C15.5746 3.04357 12.532 0 8.77944 0C5.02636 0 1.98438 3.04357 1.98438 6.79563C1.98438 10.5488 5.02636 13.5913 8.77944 13.5913Z" fill="url(#paint0_linear_263_2710)"/>
<path d="M17.482 20.138C17.1786 18.3207 15.6378 15.8087 14.5337 14.6328C14.2351 14.3145 13.7167 14.4469 13.5346 14.5597C12.1493 15.4137 10.5233 15.912 8.7796 15.912C7.036 15.912 5.40991 15.4137 4.0247 14.5597C3.84259 14.4469 3.32416 14.3145 3.0255 14.6328C1.92153 15.8087 0.380686 18.3207 0.0772614 20.138C-0.668211 24.6123 4.11158 26.2288 8.77965 26.2288C13.4477 26.2288 18.2275 24.6123 17.482 20.138Z" fill="url(#paint1_linear_263_2710)"/>
<defs>
<linearGradient id="paint0_linear_263_2710" x1="1.98438" y1="6.79563" x2="15.5746" y2="6.79563" gradientUnits="userSpaceOnUse">
<stop stop-color="#AA56D7"/>
<stop offset="1" stop-color="#D7AA56"/>
</linearGradient>
<linearGradient id="paint1_linear_263_2710" x1="0" y1="20.3313" x2="17.5593" y2="20.3313" gradientUnits="userSpaceOnUse">
<stop stop-color="#AA56D7"/>
<stop offset="1" stop-color="#D7AA56"/>
</linearGradient>
</defs>
</svg>
