<svg width="29" height="29" viewBox="0 0 29 29" fill="none" xmlns="http://www.w3.org/2000/svg">
<rect x="0.5" y="0.5" width="27.2367" height="27.2367" rx="13.6184" stroke="url(#paint0_linear_84_52)"/>
<path fill-rule="evenodd" clip-rule="evenodd" d="M19.593 18.4663C20.5746 17.2391 21.1616 15.6825 21.1616 13.9889C21.1616 10.0273 17.9501 6.8158 13.9885 6.8158C10.0269 6.8158 6.81543 10.0273 6.81543 13.9889C6.81543 17.9504 10.0269 21.162 13.9885 21.162C15.6822 21.162 17.2387 20.575 18.4659 19.5934L22.9811 24.1086C23.2923 24.4198 23.797 24.4198 24.1082 24.1086C24.4195 23.7973 24.4195 23.2927 24.1082 22.9814L19.593 18.4663ZM13.9885 19.5759C10.9029 19.5759 8.40145 17.0745 8.40145 13.9889C8.40145 10.9032 10.9029 8.40181 13.9885 8.40181C17.0742 8.40181 19.5755 10.9032 19.5755 13.9889C19.5755 17.0745 17.0742 19.5759 13.9885 19.5759Z" fill="url(#paint1_linear_84_52)"/>
<defs>
<linearGradient id="paint0_linear_84_52" x1="0" y1="14.1184" x2="28.2367" y2="14.1184" gradientUnits="userSpaceOnUse">
<stop stop-color="#AA56D7"/>
<stop offset="1" stop-color="#D7AA56"/>
</linearGradient>
<linearGradient id="paint1_linear_84_52" x1="15.5785" y1="6.8158" x2="15.5785" y2="24.342" gradientUnits="userSpaceOnUse">
<stop stop-color="#AA56D7"/>
<stop offset="1" stop-color="#D7AA56"/>
</linearGradient>
</defs>
</svg>
