<svg width="19" height="19" viewBox="0 0 19 19" fill="none" xmlns="http://www.w3.org/2000/svg">
<path d="M9.08482 0C4.06651 0 0 4.06721 0 9.08482C0 14.1024 4.06651 18.1696 9.08482 18.1696C14.1017 18.1696 18.1696 14.1024 18.1696 9.08482C18.1696 4.06721 14.1024 0 9.08482 0ZM9.01145 16.4414C4.95892 16.4414 1.6737 13.1562 1.6737 9.10369C1.6737 5.05116 4.95892 1.76595 9.01145 1.76595C13.0633 1.76595 16.3492 5.05116 16.3492 9.10369C16.3492 13.1562 13.0633 16.4414 9.01145 16.4414ZM11.1324 9.52579H9.04988V6.00926C9.04988 5.6277 8.7403 5.31742 8.35874 5.31742C7.97717 5.31742 7.66689 5.627 7.66689 6.00926V10.2169C7.66689 10.5992 7.97647 10.9081 8.35874 10.9081H11.1324C11.5147 10.9081 11.8242 10.5992 11.8242 10.2169C11.8242 9.83537 11.5147 9.52579 11.1324 9.52579Z" fill="url(#paint0_linear_263_2821)"/>
<defs>
<linearGradient id="paint0_linear_263_2821" x1="0" y1="9.08482" x2="18.1696" y2="9.08482" gradientUnits="userSpaceOnUse">
<stop stop-color="#AA56D7"/>
<stop offset="1" stop-color="#D7AA56"/>
</linearGradient>
</defs>
</svg>
